<svg width="120" height="120" viewBox="0 0 171 171" fill="none" xmlns="http://www.w3.org/2000/svg">
    <circle cx="85.0785" cy="85.0785" r="84.5785" fill="#556282" fill-opacity="0.56" stroke="#556282"/>
    <path d="M64.35 103L52 70.8H63.2L69.95 90.4L76.75 70.8H88L75.6 103H64.35ZM99.5922 103.5C97.3589 103.5 95.2255 103.317 93.1922 102.95C91.1922 102.583 89.4922 102.067 88.0922 101.4V93C89.6589 93.7333 91.3755 94.3333 93.2422 94.8C95.1422 95.2667 96.8755 95.5 98.4422 95.5C99.7755 95.5 100.792 95.3667 101.492 95.1C102.226 94.8333 102.592 94.3333 102.592 93.6C102.592 92.7667 102.042 92.1667 100.942 91.8C99.8422 91.4 98.2589 90.85 96.1922 90.15C94.0589 89.4167 92.3755 88.6333 91.1422 87.8C89.9422 86.9333 89.0755 85.9 88.5422 84.7C88.0089 83.4667 87.7422 81.9667 87.7422 80.2C87.7422 73.6 92.3255 70.3 101.492 70.3C102.626 70.3 103.826 70.3833 105.092 70.55C106.392 70.6833 107.626 70.8667 108.792 71.1C109.992 71.3 111.009 71.5333 111.842 71.8V80.25C110.142 79.5833 108.576 79.1167 107.142 78.85C105.742 78.55 104.459 78.4 103.292 78.4C102.126 78.4 101.059 78.5 100.092 78.7C99.1589 78.8667 98.6922 79.3333 98.6922 80.1C98.6922 80.7333 99.1089 81.2167 99.9422 81.55C100.776 81.85 102.176 82.2667 104.142 82.8C106.776 83.5333 108.759 84.4 110.092 85.4C111.459 86.4 112.376 87.5833 112.842 88.95C113.342 90.2833 113.592 91.8167 113.592 93.55C113.592 96.55 112.426 98.9667 110.092 100.8C107.759 102.6 104.259 103.5 99.5922 103.5Z" fill="#044DFF"/>
</svg>
